<?xml version="1.0" encoding="UTF-8" standalone="no"?>
<!-- Created with Inkscape (http://www.inkscape.org/) -->

<svg
   width="210mm"
   height="297mm"
   viewBox="0 0 210 297"
   version="1.1"
   id="svg678"
   inkscape:version="1.2.2 (b0a8486541, 2022-12-01)"
   sodipodi:docname="bianca-inima-eugen.svg"
   inkscape:export-filename="bianca-inima-eugen.png"
   inkscape:export-xdpi="248.216"
   inkscape:export-ydpi="248.216"
   xmlns:inkscape="http://www.inkscape.org/namespaces/inkscape"
   xmlns:sodipodi="http://sodipodi.sourceforge.net/DTD/sodipodi-0.dtd"
   xmlns="http://www.w3.org/2000/svg"
   xmlns:svg="http://www.w3.org/2000/svg">
  <sodipodi:namedview
     id="namedview680"
     pagecolor="#ffffff"
     bordercolor="#666666"
     borderopacity="1.0"
     inkscape:showpageshadow="2"
     inkscape:pageopacity="0.0"
     inkscape:pagecheckerboard="0"
     inkscape:deskcolor="#d1d1d1"
     inkscape:document-units="mm"
     showgrid="true"
     inkscape:zoom="1.0645786"
     inkscape:cx="305.75478"
     inkscape:cy="477.65378"
     inkscape:window-width="1920"
     inkscape:window-height="1030"
     inkscape:window-x="0"
     inkscape:window-y="26"
     inkscape:window-maximized="1"
     inkscape:current-layer="g281">
    <inkscape:grid
       type="xygrid"
       id="grid682" />
  </sodipodi:namedview>
  <defs
     id="defs675" />
  <g
     inkscape:label="Strat 1"
     inkscape:groupmode="layer"
     id="layer1">
    <g
       id="g281">
      <text
         xml:space="preserve"
         style="font-style:normal;font-weight:normal;font-size:10.5833px;line-height:1.25;font-family:sans-serif;letter-spacing:0px;word-spacing:0px;fill:#000000;fill-opacity:1;stroke:none;stroke-width:0.264583"
         x="30.521269"
         y="50.713802"
         id="text738"><tspan
           sodipodi:role="line"
           id="tspan736"
           style="font-style:normal;font-variant:normal;font-weight:bold;font-stretch:normal;font-size:12.7px;font-family:Desard;-inkscape-font-specification:'Desard, Normal';font-variant-ligatures:normal;font-variant-caps:normal;font-variant-numeric:normal;font-variant-east-asian:normal;stroke-width:0.264583"
           x="30.521269"
           y="50.713802">Bianca     Eugen</tspan></text>
      <path
         d="m 79.583599,43.763157 c 0.116899,-0.121774 0.233798,-0.243668 0.350585,-0.365561 0.116899,0.121893 0.233798,0.243787 0.350697,0.365561 -0.116899,0.121894 -0.233798,0.243787 -0.350697,0.365681 -0.116787,-0.121894 -0.233686,-0.243787 -0.350585,-0.365681 z m 0,-1.78005 c 0.116899,-0.121893 0.233798,-0.243668 0.350585,-0.365561 0.116899,0.121893 0.233798,0.243668 0.350697,0.365561 -0.116899,0.121894 -0.233798,0.243787 -0.350697,0.365562 -0.116787,-0.121775 -0.233686,-0.243668 -0.350585,-0.365562 z m -2.210144,-3.035695 c 0.116899,0.121774 0.233798,0.243668 0.350697,0.365561 -0.116899,0.121894 -0.233798,0.243787 -0.350697,0.365562 -0.116786,-0.121775 -0.233685,-0.243668 -0.350585,-0.365562 0.1169,-0.121893 0.233799,-0.243787 0.350585,-0.365561 z m -8.535803,0 c 0.116899,0.121774 0.233799,0.243668 0.350698,0.365561 -0.116899,0.121894 -0.233799,0.243787 -0.350698,0.365562 -0.116785,-0.121775 -0.233684,-0.243668 -0.350583,-0.365562 0.116899,-0.121893 0.233798,-0.243787 0.350583,-0.365561 z m -2.210077,4.815745 c -0.116865,0.121894 -0.233741,0.243787 -0.350618,0.365681 -0.116876,-0.121894 -0.233707,-0.243787 -0.350583,-0.365681 0.116876,-0.121774 0.233707,-0.243668 0.350583,-0.365561 0.116877,0.121893 0.233753,0.243787 0.350618,0.365561 z m 0,-1.78005 c -0.116865,0.121894 -0.233741,0.243787 -0.350618,0.365562 -0.116876,-0.121775 -0.233707,-0.243668 -0.350583,-0.365562 0.116876,-0.121893 0.233707,-0.243668 0.350583,-0.365561 0.116877,0.121893 0.233753,0.243668 0.350618,0.365561 z m 12.201536,3.298017 c -0.200645,0.209215 -0.4014,0.418549 -0.602042,0.627764 -0.200642,-0.209215 -0.401401,-0.418549 -0.602043,-0.627764 -0.324149,-0.337999 -0.827295,0.186286 -0.503029,0.524404 0.200755,0.209334 0.401397,0.418548 0.602155,0.627882 -0.200758,0.209215 -0.4014,0.418549 -0.602155,0.627764 -0.200646,0.209215 -0.401401,0.418549 -0.602043,0.627764 -0.200758,-0.209215 -0.401401,-0.418549 -0.602156,-0.627764 -0.324036,-0.337999 -0.827182,0.186404 -0.502916,0.524522 0.200642,0.209215 0.401397,0.41843 0.602039,0.627764 -0.200642,0.209215 -0.401397,0.418549 -0.602039,0.627764 -0.200759,0.209333 -0.401401,0.418548 -0.602156,0.627882 -0.200644,-0.209334 -0.4014,-0.418549 -0.602043,-0.627882 -0.32415,-0.337881 -0.827295,0.186404 -0.503031,0.524522 0.200757,0.209215 0.401399,0.418549 0.602156,0.627764 -0.200757,0.209334 -0.401399,0.418549 -0.602156,0.627882 -0.200643,0.209215 -0.401399,0.418549 -0.602042,0.627764 -0.200757,-0.209215 -0.401399,-0.418549 -0.602156,-0.627764 -0.200643,-0.209333 -0.401285,-0.418548 -0.602042,-0.627882 0.200757,-0.209215 0.401399,-0.418549 0.602042,-0.627764 0.32415,-0.337999 -0.178653,-0.862521 -0.502917,-0.524522 -0.200642,0.209333 -0.401399,0.418548 -0.602042,0.627882 -0.200756,-0.209334 -0.401399,-0.418549 -0.602156,-0.627882 -0.200642,-0.209215 -0.401399,-0.418549 -0.602042,-0.627764 0.200643,-0.209334 0.4014,-0.418549 0.602042,-0.627764 0.324151,-0.337999 -0.178766,-0.86264 -0.502916,-0.524522 -0.200757,0.209215 -0.4014,0.418549 -0.602156,0.627764 -0.200643,-0.209215 -0.4014,-0.418549 -0.602042,-0.627764 -0.200757,-0.209215 -0.4014,-0.418549 -0.602156,-0.627764 0.200756,-0.209334 0.401399,-0.418548 0.602156,-0.627882 0.324036,-0.337881 -0.178767,-0.862522 -0.503031,-0.524404 -0.200654,0.209215 -0.401377,0.418549 -0.602054,0.627764 -0.200722,-0.209215 -0.40141,-0.418549 -0.602133,-0.627764 -0.200677,-0.209334 -0.401353,-0.418549 -0.602042,-0.627883 0.200689,-0.209214 0.401365,-0.418548 0.602042,-0.627763 0.07401,-0.07722 0.103307,-0.163951 0.103079,-0.248064 3.87e-4,-0.0049 2.28e-4,-0.0099 3.87e-4,-0.01485 -1.71e-4,-0.0043 0,-0.0087 -3.55e-4,-0.01295 3.55e-4,-0.08435 -0.02893,-0.171316 -0.103124,-0.248658 -0.200677,-0.209214 -0.401354,-0.418548 -0.602042,-0.627763 0.200688,-0.209334 0.401365,-0.418549 0.602042,-0.627883 0.07401,-0.0771 0.103306,-0.163831 0.103079,-0.247945 3.87e-4,-0.005 2.27e-4,-0.0099 3.87e-4,-0.01485 -1.71e-4,-0.0043 0,-0.0087 -3.55e-4,-0.01307 3.55e-4,-0.08423 -0.02893,-0.171198 -0.103124,-0.24854 -0.200677,-0.209334 -0.401354,-0.418548 -0.602042,-0.627763 0.200688,-0.209334 0.401365,-0.418549 0.602042,-0.627883 0.200722,-0.209333 0.40141,-0.418549 0.602133,-0.627882 0.200677,0.209333 0.401399,0.418549 0.602053,0.627882 0.07406,0.0771 0.157233,0.107637 0.2379,0.107399 0.0047,4.72e-4 0.0095,2.38e-4 0.01424,4.72e-4 0.0041,-2.37e-4 0.0083,0 0.01242,-3.71e-4 0.08089,3.71e-4 0.164297,-0.03018 0.23847,-0.107518 0.200643,-0.209333 0.401399,-0.418548 0.602042,-0.627882 0.200757,0.209334 0.401399,0.418549 0.602156,0.627882 0.200642,0.209334 0.401399,0.418549 0.602042,0.627883 -0.200643,0.209215 -0.4014,0.41843 -0.602042,0.627764 -0.32415,0.337999 0.178653,0.862521 0.502917,0.524403 0.200756,-0.209215 0.401399,-0.418549 0.602156,-0.627764 0.200642,0.209215 0.401399,0.418549 0.602042,0.627764 0.200642,0.209334 0.401399,0.418549 0.602042,0.627883 -0.200643,0.209214 -0.4014,0.418548 -0.602042,0.627763 -0.32415,0.337999 0.178767,0.862641 0.502917,0.524523 0.200756,-0.209334 0.401399,-0.418549 0.602155,-0.627883 0.200643,0.209334 0.4014,0.418549 0.602042,0.627883 0.324151,0.33788 0.827295,-0.186405 0.503031,-0.524523 -0.200756,-0.209215 -0.401399,-0.418549 -0.602155,-0.627763 0.200756,-0.209334 0.401399,-0.418549 0.602155,-0.627883 0.200643,-0.209215 0.401399,-0.418549 0.602044,-0.627764 0.200755,0.209215 0.401397,0.418549 0.602156,0.627764 0.324036,0.337999 0.827179,-0.186286 0.502916,-0.524403 -0.200642,-0.209334 -0.4014,-0.418549 -0.602042,-0.627764 0.200642,-0.209334 0.4014,-0.418549 0.602042,-0.627883 0.200756,-0.209333 0.401398,-0.418548 0.602156,-0.627882 0.200642,0.209334 0.401397,0.418549 0.602043,0.627882 0.07394,0.07711 0.157231,0.107637 0.2379,0.1074 0.0047,4.71e-4 0.0095,2.37e-4 0.01411,4.71e-4 0.0042,-2.37e-4 0.0084,0 0.01253,-3.7e-4 0.08089,3.7e-4 0.164295,-0.03018 0.238468,-0.107519 0.200642,-0.209333 0.401401,-0.418548 0.602043,-0.627882 0.200642,0.209334 0.401397,0.418549 0.602042,0.627882 0.200756,0.209334 0.401398,0.418549 0.602156,0.627883 -0.200758,0.209215 -0.4014,0.41843 -0.602156,0.627764 -0.07395,0.0771 -0.103227,0.16395 -0.102998,0.247945 -3.23e-4,0.005 -2.29e-4,0.01 -3.23e-4,0.01485 2.29e-4,0.0044 0,0.0087 3.23e-4,0.01307 -3.23e-4,0.08423 0.02884,0.171198 0.102998,0.24854 0.200756,0.209333 0.401398,0.418548 0.602156,0.627882 -0.200758,0.209215 -0.4014,0.418549 -0.602156,0.627764 -0.07395,0.07722 -0.103227,0.16395 -0.102998,0.248064 -3.23e-4,0.0049 -2.29e-4,0.0099 -3.23e-4,0.01485 2.29e-4,0.0043 0,0.0087 3.23e-4,0.01295 -3.23e-4,0.08435 0.02884,0.171316 0.102998,0.248658 0.200756,0.209215 0.401398,0.418549 0.602156,0.627764 -0.200758,0.209334 -0.4014,0.418549 -0.602156,0.627882 z m 2.313256,-1.50371 c 3.23e-4,-0.0049 2.3e-4,-0.0099 3.23e-4,-0.01485 -1.13e-4,-0.0043 0,-0.0087 -3.23e-4,-0.01295 3.23e-4,-0.08435 -0.02894,-0.171316 -0.103111,-0.248658 -0.200642,-0.209214 -0.401401,-0.418548 -0.602043,-0.627763 0.200642,-0.209334 0.401401,-0.418549 0.602043,-0.627883 0.07406,-0.0771 0.103341,-0.163831 0.103111,-0.247945 3.23e-4,-0.005 2.3e-4,-0.0099 3.23e-4,-0.01485 -1.13e-4,-0.0043 0,-0.0087 -3.23e-4,-0.01307 3.23e-4,-0.08423 -0.02894,-0.171198 -0.103111,-0.24854 -0.200642,-0.209334 -0.401401,-0.418548 -0.602043,-0.627763 0.200642,-0.209334 0.401401,-0.418549 0.602043,-0.627883 0.324149,-0.33788 -0.178655,-0.862522 -0.502917,-0.524522 -0.200758,0.209334 -0.4014,0.418548 -0.602155,0.627882 -0.200643,-0.209334 -0.401401,-0.418548 -0.602043,-0.627882 -0.200755,-0.209215 -0.401401,-0.418549 -0.602043,-0.627764 0.200642,-0.209215 0.401288,-0.418549 0.602043,-0.627764 0.324149,-0.337999 -0.178767,-0.86264 -0.50303,-0.524522 -0.200645,0.209215 -0.4014,0.418549 -0.602042,0.627882 -0.200642,-0.209333 -0.401401,-0.418667 -0.602043,-0.627882 -0.07406,-0.0771 -0.157232,-0.107756 -0.2379,-0.1074 -0.0048,-4.71e-4 -0.0095,-2.37e-4 -0.01424,-4.71e-4 -0.0041,2.38e-4 -0.0083,0 -0.01253,3.7e-4 -0.08078,-3.7e-4 -0.164185,0.03018 -0.238355,0.107519 -0.200646,0.209215 -0.401401,0.418549 -0.602043,0.627882 -0.200758,-0.209333 -0.401401,-0.418667 -0.602156,-0.627882 -0.324036,-0.337881 -0.827182,0.186404 -0.502916,0.524522 0.200642,0.209215 0.401397,0.418549 0.602039,0.627764 -0.200642,0.209215 -0.401397,0.418548 -0.602039,0.627764 -0.200759,0.209333 -0.401401,0.418548 -0.602156,0.627882 -0.200644,-0.209334 -0.4014,-0.418549 -0.602043,-0.627882 -0.32415,-0.337881 -0.827295,0.186404 -0.503031,0.524522 0.200757,0.209334 0.401399,0.418549 0.602156,0.627883 -0.200757,0.209215 -0.401399,0.418429 -0.602156,0.627763 -0.200643,0.209215 -0.401399,0.418549 -0.602042,0.627764 -0.200757,-0.209215 -0.401399,-0.418549 -0.602156,-0.627764 -0.200643,-0.209334 -0.401285,-0.418548 -0.602042,-0.627763 0.200757,-0.209334 0.401399,-0.418549 0.602042,-0.627883 0.32415,-0.33788 -0.178653,-0.862522 -0.502917,-0.524522 -0.200642,0.209333 -0.401399,0.418548 -0.602042,0.627882 -0.200756,-0.209334 -0.401399,-0.418549 -0.602156,-0.627882 -0.200642,-0.209216 -0.401399,-0.418549 -0.602042,-0.627764 0.200643,-0.209215 0.4014,-0.418549 0.602042,-0.627764 0.324151,-0.337999 -0.178766,-0.86264 -0.502916,-0.524522 -0.200757,0.209215 -0.4014,0.418549 -0.602156,0.627882 -0.200643,-0.209333 -0.4014,-0.418667 -0.602042,-0.627882 -0.07406,-0.0771 -0.157233,-0.107756 -0.2379,-0.1074 -0.0047,-4.71e-4 -0.0095,-2.37e-4 -0.01413,-4.71e-4 -0.0042,2.38e-4 -0.0084,0 -0.01265,3.7e-4 -0.08078,-3.7e-4 -0.164183,0.03018 -0.238355,0.107518 -0.200654,0.209216 -0.401377,0.418549 -0.602054,0.627883 -0.200722,-0.209334 -0.40141,-0.418667 -0.602133,-0.627883 -0.324047,-0.33788 -0.827192,0.186405 -0.502917,0.524523 0.200677,0.209215 0.401354,0.418549 0.602076,0.627764 -0.200722,0.209215 -0.401399,0.418548 -0.602076,0.627763 -0.200733,0.209334 -0.40141,0.418549 -0.602133,0.627883 -0.200677,-0.209334 -0.401399,-0.418549 -0.602087,-0.627883 -0.324093,-0.33788 -0.827193,0.186405 -0.502963,0.524523 0.200723,0.209334 0.401399,0.418548 0.602076,0.627882 -0.200677,0.209215 -0.401353,0.41843 -0.602076,0.627764 -0.07397,0.0771 -0.103306,0.16395 -0.103033,0.247945 -3.87e-4,0.005 -2.28e-4,0.01 -4.52e-4,0.01485 1.71e-4,0.0044 0,0.0087 3.87e-4,0.01307 -3.87e-4,0.08423 0.02893,0.171197 0.103079,0.248539 0.200723,0.209334 0.401399,0.418549 0.602076,0.627883 -0.200677,0.209214 -0.401353,0.418548 -0.602076,0.627763 -0.07397,0.07722 -0.103306,0.163951 -0.103033,0.248064 -3.88e-4,0.0049 -2.28e-4,0.0099 -4.52e-4,0.01485 1.71e-4,0.0043 0,0.0087 3.87e-4,0.01295 -3.87e-4,0.08435 0.02893,0.171316 0.103079,0.248657 0.200723,0.209216 0.401399,0.418549 0.602076,0.627764 -0.200677,0.209334 -0.401353,0.418549 -0.602076,0.627883 -0.324105,0.33788 0.178733,0.862521 0.502963,0.524403 0.200688,-0.209214 0.40141,-0.418548 0.602087,-0.627763 0.200722,0.209215 0.401399,0.418549 0.602133,0.627763 0.200677,0.209334 0.401354,0.418549 0.602076,0.627883 -0.200722,0.209215 -0.401399,0.418549 -0.602076,0.627764 -0.32415,0.337999 0.178687,0.862521 0.502917,0.524522 0.200723,-0.209334 0.401411,-0.418549 0.602133,-0.627882 0.200677,0.209333 0.401399,0.418548 0.602054,0.627882 0.200756,0.209215 0.401399,0.41843 0.602156,0.627764 -0.200757,0.209215 -0.4014,0.418548 -0.602156,0.627764 -0.324071,0.337998 0.178767,0.86264 0.50303,0.524522 0.200643,-0.209334 0.4014,-0.418549 0.602042,-0.627883 0.200757,0.209334 0.4014,0.418549 0.602156,0.627883 0.200643,0.209215 0.4014,0.418549 0.602042,0.627763 -0.200642,0.209334 -0.401399,0.418549 -0.602042,0.627883 -0.32415,0.33788 0.178653,0.862522 0.502917,0.524404 0.200757,-0.209215 0.401399,-0.418549 0.602156,-0.627764 0.200643,0.209215 0.401399,0.418549 0.602042,0.627764 0.200643,0.209333 0.401399,0.418549 0.602042,0.627882 -0.200643,0.209215 -0.401399,0.418549 -0.602042,0.627764 -0.32415,0.337999 0.178767,0.862522 0.502917,0.524522 0.200757,-0.209334 0.401399,-0.418548 0.602156,-0.627882 0.200643,0.209334 0.401399,0.418548 0.602042,0.627882 0.32415,0.337881 0.827295,-0.186404 0.503031,-0.524522 -0.200757,-0.209215 -0.4014,-0.418549 -0.602156,-0.627764 0.200756,-0.209333 0.401399,-0.418549 0.602156,-0.627882 0.200642,-0.209215 0.401399,-0.418549 0.602044,-0.627764 0.200752,0.209215 0.401395,0.418549 0.602153,0.627764 0.324036,0.337999 0.827182,-0.186286 0.502916,-0.524404 -0.200642,-0.209334 -0.4014,-0.418549 -0.602042,-0.627883 0.200642,-0.209214 0.4014,-0.418548 0.602042,-0.627763 0.200756,-0.209334 0.401398,-0.418549 0.602156,-0.627883 0.200642,0.209334 0.401397,0.418549 0.602043,0.627883 0.324149,0.337999 0.827179,-0.186405 0.503029,-0.524522 -0.200755,-0.209216 -0.4014,-0.418549 -0.602155,-0.627764 0.200755,-0.209334 0.4014,-0.418549 0.602155,-0.627764 0.200642,-0.209334 0.401401,-0.418549 0.602043,-0.627882 0.200642,0.209333 0.401397,0.418548 0.602043,0.627882 0.324149,0.33788 0.827295,-0.186405 0.503029,-0.524522 -0.200755,-0.209215 -0.4014,-0.418549 -0.602042,-0.627764 0.200642,-0.209334 0.401287,-0.418549 0.602042,-0.627883 0.200642,-0.209214 0.401401,-0.418548 0.602043,-0.627763 0.200755,0.209215 0.401397,0.418549 0.602155,0.627763 0.324037,0.338 0.827183,-0.186404 0.502917,-0.524403 -0.200642,-0.209334 -0.4014,-0.418549 -0.602043,-0.627883 0.200643,-0.209215 0.401401,-0.418548 0.602043,-0.627764 0.07406,-0.07722 0.103341,-0.16395 0.103112,-0.248064"
         style="fill:#a71930;fill-opacity:1;fill-rule:nonzero;stroke:none;stroke-width:0.0116345"
         id="path2498" />
    </g>
  </g>
</svg>
